<svg id="Layer_1" data-name="Layer 1" xmlns="http://www.w3.org/2000/svg" viewBox="0 0 72 72"><defs><style>.cls-1{fill:#f6e38a;}.cls-2{fill:#57328a;}</style></defs><circle class="cls-1" cx="36" cy="36" r="35"/><path id="Path_18" data-name="Path 18" class="cls-2" d="M30.07,33.68a1.38,1.38,0,1,0-1-.4A1.44,1.44,0,0,0,30.07,33.68Z"/><path id="Path_19" data-name="Path 19" class="cls-2" d="M41.93,33.68a1.38,1.38,0,1,0-1-.4A1.42,1.42,0,0,0,41.93,33.68Z"/><path id="Path_20" data-name="Path 20" class="cls-2" d="M43.41,38.32A1.38,1.38,0,0,0,42,39.7h0a2.32,2.32,0,0,1-4.5.79A2.4,2.4,0,0,0,38,39.9l.74-1.28a2.08,2.08,0,0,0-1.89-3.26H35.35a2.09,2.09,0,0,0-2.24,1.93,2,2,0,0,0,.36,1.33l.74,1.29a3.19,3.19,0,0,0,.31.44A2.32,2.32,0,0,1,30,39.7a1.38,1.38,0,0,0-2.76,0A5.09,5.09,0,0,0,36,43.19a5.09,5.09,0,0,0,8.79-3.49,1.38,1.38,0,0,0-1.38-1.38Z"/><path id="Path_21" data-name="Path 21" class="cls-2" d="M58.75,42.87l-4.34-1.78h3.82a1.39,1.39,0,0,0,0-2.77H54.41l4.34-1.78a1.38,1.38,0,1,0-1-2.59l-.07,0-5.5,2.25v-15a1.39,1.39,0,0,0-1.38-1.39,1.43,1.43,0,0,0-.77.24L45.63,23a16.22,16.22,0,0,0-19.27,0L22,20a1.37,1.37,0,0,0-1.92.38,1.42,1.42,0,0,0-.23.77v15L14.3,34a1.38,1.38,0,1,0-1.12,2.53l.07,0,4.34,1.78H13.77a1.39,1.39,0,0,0,0,2.77h3.82l-4.34,1.78a1.38,1.38,0,1,0,1.05,2.56l6.9-2.83a16.21,16.21,0,0,0,29.6,0l6.9,2.83a1.38,1.38,0,1,0,1-2.56ZM36,49.43a13.46,13.46,0,0,1-12.24-7.88L25.13,41a1.38,1.38,0,0,0,0-2.56l-2.5-1c0-.47-.07-.94-.07-1.4V23.76l3.1,2.07a1.38,1.38,0,0,0,1.66-.1,13.45,13.45,0,0,1,17.35,0,1.38,1.38,0,0,0,1.66.1l3.1-2.07V36c0,.46,0,.93-.07,1.4l-2.48,1a1.38,1.38,0,0,0-.78,1.8,1.36,1.36,0,0,0,.78.78l1.35.55A13.44,13.44,0,0,1,36,49.43Z"/></svg>