<svg id="Layer_1" data-name="Layer 1" xmlns="http://www.w3.org/2000/svg" viewBox="0 0 72 72"><defs><style>.cls-1{fill:#f6e38a;}.cls-2{fill:#57328a;}</style></defs><circle class="cls-1" cx="36" cy="36" r="35"/><path id="Path_15" data-name="Path 15" class="cls-2" d="M58.18,32.33,47.68,19.75a4.11,4.11,0,0,0-.42-.5.93.93,0,0,0-.14-.14,4.85,4.85,0,0,0-3.36-1.36H28.24a4.83,4.83,0,0,0-3.36,1.36.8.8,0,0,0-.13.13,4.15,4.15,0,0,0-.43.51L13.82,32.33a1.38,1.38,0,0,0-.3.85,6.26,6.26,0,0,0,9.87,5.1v4.78A7,7,0,0,0,29.57,50a7,7,0,0,0,12.85,0,7,7,0,0,0,6.18-6.91V38.27a6.25,6.25,0,0,0,9.88-5.1A1.35,1.35,0,0,0,58.18,32.33ZM19.78,36.8a3.65,3.65,0,0,1-3.6-3.18L23.39,25v8.2a3.63,3.63,0,0,1-3.62,3.63ZM36,51.61a4.31,4.31,0,0,1-3.59-1.91A7,7,0,0,0,36,47.12a7,7,0,0,0,3.59,2.58A4.31,4.31,0,0,1,36,51.61Zm.17-10.15a1.24,1.24,0,0,1-.17.23,1.24,1.24,0,0,1-.17-.23L34.42,39a1.51,1.51,0,0,1-.12-.26.67.67,0,0,1,.28,0h2.83a.67.67,0,0,1,.28,0,1.51,1.51,0,0,1-.12.26ZM46,43.05a4.33,4.33,0,0,1-8.57.88,3.47,3.47,0,0,0,1-1.15l1.42-2.45a2.68,2.68,0,0,0-2.45-4.24H34.59a2.68,2.68,0,0,0-2.45,4.24l1.41,2.45a3.61,3.61,0,0,0,1.05,1.15A4.33,4.33,0,0,1,26,43.05V22.59a2.21,2.21,0,0,1,.37-1.22l.31-.37a2.19,2.19,0,0,1,1.53-.62H43.76A2.2,2.2,0,0,1,45.3,21l.3.36A2.21,2.21,0,0,1,46,22.59V43.05Zm6.25-6.25a3.63,3.63,0,0,1-3.62-3.62V25l7.22,8.64a3.64,3.64,0,0,1-3.59,3.18Z"/><path id="Path_16" data-name="Path 16" class="cls-2" d="M30.36,29a1.32,1.32,0,1,0,1.31,1.31A1.3,1.3,0,0,0,30.36,29Z"/><path id="Path_17" data-name="Path 17" class="cls-2" d="M41.64,29A1.32,1.32,0,1,0,43,30.36a1.37,1.37,0,0,0-.38-.94A1.32,1.32,0,0,0,41.64,29Z"/></svg>