<svg id="Opstilling_B" data-name="Opstilling B" xmlns="http://www.w3.org/2000/svg" viewBox="0 0 212.5 195"><defs><style>.cls-1{fill:#f6e38a;}.cls-2{fill:#57328a;}</style></defs><g id="Layer_5" data-name="Layer 5"><ellipse class="cls-1" cx="106.25" cy="110.32" rx="106.64" ry="84.16" transform="translate(-14.5 16.09) rotate(-8.11)"/><circle class="cls-2" cx="83.99" cy="40.69" r="40.69"/><path class="cls-2" d="M175.61,127a3.37,3.37,0,0,0-4.75.25c-13.12,14.55-27.17,23.91-44.18,29.44-2.48.81-7.41-3.53-8.08-6L95.06,73.31c-.5-1.9-.64-8.88-2.54-8.18-1.65.6.08,11.86.52,13.56l20.13,76.94a4.52,4.52,0,0,1-3.22,5.52,4.1,4.1,0,0,1-.48.1,109.26,109.26,0,0,1-14.22,1.21c-22.22.48-36.89-3.61-37.19-3.72-1.72-.68-5.44-2.08-6.12-.35a3.37,3.37,0,0,0,1.89,4.37c.69.27,16.6,6.45,39,6.45h2.3c21.82-.41,52.62-6,81.33-34.67C179.82,131.16,177,128.28,175.61,127Z"/><circle class="cls-2" cx="41.49" cy="86.24" r="5.09"/><circle class="cls-2" cx="61.29" cy="102.19" r="5.09"/><circle class="cls-2" cx="32.97" cy="114.64" r="5.09"/><circle class="cls-2" cx="145.02" cy="55.68" r="5.09"/><circle class="cls-2" cx="160.52" cy="75.35" r="5.09"/><circle class="cls-2" cx="137.71" cy="78.53" r="5.09"/><ellipse class="cls-1" cx="62.01" cy="21.7" rx="16.06" ry="8.07" transform="translate(7.76 58.75) rotate(-53.62)"/></g></svg>