<svg id="Layer_1" data-name="Layer 1" xmlns="http://www.w3.org/2000/svg" viewBox="0 0 72 72"><defs><style>.cls-1{fill:#f6e38a;}.cls-2{fill:#57328a;}</style></defs><circle class="cls-1" cx="36" cy="36" r="35"/><path id="_007-snake" data-name=" 007-snake" class="cls-2" d="M17.61,53.25a1.31,1.31,0,0,1-1.31-1.31h0V48.88a4.39,4.39,0,0,1,4.38-4.38H45.2A1.76,1.76,0,1,0,45.28,41H26.8a10.5,10.5,0,0,1,0-21h10a5.52,5.52,0,0,1,3.5-1.24,1.13,1.13,0,0,1,.36.06,28,28,0,0,1,3.55,1.32c2,.92,3.24,1.88,3.79,2.92h3l2.76-1.66a1.3,1.3,0,0,1,.67-.19,1.36,1.36,0,0,1,1.12.64,1.32,1.32,0,0,1-.45,1.8l-1.19.71,1.19.72a1.3,1.3,0,0,1,.45,1.79,1.29,1.29,0,0,1-1.12.64,1.3,1.3,0,0,1-.67-.19L51,25.65H48c-.56,1-1.8,2-3.79,2.92a28.15,28.15,0,0,1-3.56,1.32,1.41,1.41,0,0,1-.35.05,5.55,5.55,0,0,1-3.5-1.23h-10a1.76,1.76,0,0,0,0,3.52H45.19a10.5,10.5,0,0,1,0,21H17.61ZM45.2,50.63a7.89,7.89,0,1,0,0-15.77H26.8a4.38,4.38,0,0,1,0-8.76H37.29a1.33,1.33,0,0,1,.91.37,3,3,0,0,0,1.91.85,22.85,22.85,0,0,0,3-1.14c2.12-1,2.59-1.7,2.59-1.84s-.47-.86-2.61-1.85a26.34,26.34,0,0,0-3-1.12,2.93,2.93,0,0,0-1.91.85,1.29,1.29,0,0,1-.92.37H26.8a7.89,7.89,0,0,0,0,15.78H45.19a4.38,4.38,0,1,1,0,8.75H20.68a1.76,1.76,0,0,0-1.76,1.76h0v1.75Z"/></svg>